# Blender v2.91.2 OBJ File: 'Outpost.blend'
# www.blender.org
mtllib CorridorConectionOut.mtl
o CorridorConectionOut_Cube
v -8.190738 -4.776603 8.000000
v -8.135305 -4.799564 8.000000
v -4.679394 -4.974827 8.000000
v -4.624342 -4.998688 8.000000
v -4.508377 4.835476 8.000000
v -4.564812 4.815102 8.000000
v -4.276752 5.001310 8.000000
v -4.333187 4.980936 8.000000
v -9.000009 2.276863 8.000000
v -9.027852 2.223715 8.000000
v -9.027852 -2.208173 8.000000
v -9.000009 -2.261321 8.000000
v -9.291821 -1.991512 8.000000
v -9.263978 -2.044660 8.000000
v 8.977040 -3.990301 8.000000
v 9.000001 -3.934868 8.000000
v 9.000001 3.950410 8.000000
v 8.977040 4.005843 8.000000
v 8.190738 4.792145 8.000000
v 8.135305 4.815106 8.000000
v 9.000009 -2.261321 8.000000
v 9.027852 -2.208173 8.000000
v 9.291821 2.007054 8.000000
v 9.263978 2.060202 8.000000
v -8.190738 4.792145 -8.000000
v -8.135305 4.815106 -8.000000
v -4.564812 4.815102 -8.000000
v -4.508377 4.835476 -8.000000
v -9.027852 2.223715 -8.000000
v -9.000009 2.276863 -8.000000
v -9.000009 -2.261321 -8.000000
v -9.027852 -2.208173 -8.000000
v 4.876297 -4.799565 -8.000000
v 4.821246 -4.823426 -8.000000
v 8.190738 -4.776603 -8.000000
v 8.135305 -4.799564 -8.000000
v 8.135305 4.815106 -8.000000
v 8.190738 4.792145 -8.000000
v 4.679394 -4.974827 -8.000000
v 4.624342 -4.998688 -8.000000
v 4.508377 4.835476 -8.000000
v 4.564812 4.815102 -8.000000
v 9.000009 2.276863 -8.000000
v 9.027852 2.223715 -8.000000
v 9.027852 -2.208173 -8.000000
v 9.000009 -2.261321 -8.000000
v 9.291821 -1.991512 -8.000000
v 9.263978 -2.044660 -8.000000
v 9.263978 2.060202 -8.000000
v 9.291821 2.007054 -8.000000
v -4.876297 -4.799565 8.000000
v -4.821246 -4.823426 8.000000
v -9.000001 -3.934868 8.000000
v -8.977040 -3.990301 8.000000
v -8.977040 4.005843 8.000000
v -9.000001 3.950410 8.000000
v -8.135305 4.815106 8.000000
v -8.190738 4.792145 8.000000
v -9.263978 2.060202 8.000000
v -9.291821 2.007054 8.000000
v 4.821246 -4.823426 8.000000
v 4.876297 -4.799565 8.000000
v 8.135305 -4.799564 8.000000
v 8.190738 -4.776603 8.000000
v 4.624342 -4.998688 8.000000
v 4.679394 -4.974827 8.000000
v 4.564812 4.815102 8.000000
v 4.508377 4.835476 8.000000
v 4.333187 4.980936 8.000000
v 4.276752 5.001310 8.000000
v 9.027852 2.223715 8.000000
v 9.000009 2.276863 8.000000
v 9.263978 -2.044660 8.000000
v 9.291821 -1.991512 8.000000
v -4.821246 -4.823426 -8.000000
v -4.876297 -4.799565 -8.000000
v -8.135305 -4.799564 -8.000000
v -8.190738 -4.776603 -8.000000
v -8.977040 -3.990301 -8.000000
v -9.000001 -3.934868 -8.000000
v -9.000001 3.950410 -8.000000
v -8.977040 4.005843 -8.000000
v -4.624342 -4.998688 -8.000000
v -4.679394 -4.974827 -8.000000
v -4.333187 4.980936 -8.000000
v -4.276752 5.001310 -8.000000
v -9.263978 -2.044660 -8.000000
v -9.291821 -1.991512 -8.000000
v -9.291821 2.007054 -8.000000
v -9.263978 2.060202 -8.000000
v 9.000001 -3.934868 -8.000000
v 8.977040 -3.990301 -8.000000
v 8.977040 4.005843 -8.000000
v 9.000001 3.950410 -8.000000
v 4.276752 5.001310 -8.000000
v 4.333187 4.980936 -8.000000
vt 4.642435 8.248750
vt -3.642436 -7.248750
vt 4.642436 -7.248750
vt -7.248750 2.699271
vt 8.248750 4.320259
vt 8.248750 2.699271
vt -7.248750 -3.317373
vt 8.248750 -1.696385
vt 8.248750 -3.317373
vt 8.248750 -1.696385
vt -7.248750 -3.317373
vt 8.248750 -3.317373
vt 8.248750 4.320259
vt -7.248750 2.699271
vt 8.248750 2.699271
vt -3.979110 8.248750
vt 4.979109 -7.248750
vt -3.979109 -7.248750
vt -2.377151 0.955692
vt 0.461857 0.949897
vt 0.461857 0.955692
vt 0.528410 0.788516
vt -2.344340 0.794596
vt -2.344340 0.788516
vt -7.248750 2.666468
vt 8.411259 8.248750
vt 8.379807 -7.248750
vt 8.411259 -7.248750
vt 0.528529 0.608518
vt -2.344216 0.614599
vt -2.344216 0.608518
vt 0.528426 0.733423
vt 3.401169 0.727342
vt 3.401169 0.733423
vt -4.191482 -7.248750
vt -4.223152 8.248750
vt -4.191482 8.248750
vt 0.528437 0.135844
vt 2.839339 0.131154
vt 2.839339 0.135844
vt -7.379807 -7.248750
vt -7.411258 8.248750
vt -7.379807 8.248751
vt -7.248750 4.320259
vt 8.248750 4.351710
vt -7.379807 8.248750
vt -7.411258 -7.248750
vt -7.379806 -7.248750
vt -4.010779 8.248750
vt -2.377151 0.908527
vt 0.461857 0.902732
vt 0.461857 0.908527
vt 0.528654 0.553423
vt 3.401443 0.547343
vt 3.401443 0.553424
vt 0.528410 0.730866
vt -2.344340 0.736947
vt -2.344340 0.730866
vt -2.344415 1.050083
vt 0.528351 1.044212
vt 0.528351 1.050083
vt 0.528413 0.779633
vt 4.778298 0.777079
vt 4.778298 0.779633
vt 8.411259 -7.248750
vt 8.379807 8.248750
vt 8.411259 8.248750
vt -7.248750 4.351710
vt 8.248750 4.351710
vt -2.344415 1.006962
vt 0.528351 1.001091
vt 0.528351 1.006962
vt 4.890554 -7.248750
vt 4.921447 8.248750
vt 4.890554 8.248750
vt 3.401291 0.852507
vt 0.528581 0.858234
vt 0.528581 0.852507
vt 0.528426 0.675773
vt 3.401169 0.669693
vt 3.401169 0.675773
vt 0.528529 0.666168
vt -2.344216 0.672249
vt -2.344216 0.666168
vt -3.642437 8.248750
vt -7.248750 -1.696385
vt -7.248750 -1.696385
vt -7.248750 4.320259
vt 4.979109 8.248750
vt -2.377151 0.949897
vt 0.528410 0.794596
vt 8.248750 2.666468
vt 8.379807 8.248750
vt 0.528529 0.614599
vt 0.528426 0.727342
vt -4.223152 -7.248750
vt 0.528436 0.131101
vt -7.411258 -7.248750
vt -7.248750 4.351710
vt -7.411258 8.248750
vt -4.010779 -7.248750
vt -2.377151 0.902732
vt 0.528654 0.547343
vt 0.528410 0.736947
vt -2.344415 1.044212
vt 0.528413 0.777079
vt 8.379807 -7.248751
vt -2.344415 1.001091
vt 4.921447 -7.248750
vt 3.401291 0.858234
vt 0.528426 0.669693
vt 0.528529 0.672249
vt -3.921449 8.248750
vt -3.921449 -7.248750
vt -1.784181 0.330414
vt 0.528456 0.169687
vt 0.528456 0.330415
vt 0.528407 -0.031318
vt 2.839339 -0.029453
vt 0.528433 0.959557
vt -2.344332 0.996808
vt -2.344332 0.959557
vt 0.528581 0.899119
vt 3.401291 0.899119
vt 0.512179 0.368504
vt 2.818240 0.529690
vt 0.512179 0.529690
vt 0.528654 0.604992
vt 3.401443 0.604992
vt 4.778298 0.867095
vt -1.784181 0.169687
vt 0.528433 0.996808
vt 2.818240 0.368504
vt 0.528413 0.867095
vt 5.223151 8.248750
vt 5.223150 -7.248750
vt -7.248750 -1.435050
vt 8.248750 2.437935
vt 8.248750 -1.435049
vt 8.248750 2.437935
vt -7.248750 -1.435049
vt 8.248751 -1.435050
vt -7.248750 2.437935
vt -7.248750 2.437935
vn 0.0024 1.0000 0.0000
vn -0.0024 1.0000 0.0000
vn -0.9999 0.0161 0.0000
vn -0.9999 0.0133 0.0000
vn -0.9999 -0.0133 0.0000
vn -0.9999 -0.0161 -0.0000
vn 0.9999 -0.0161 0.0000
vn 0.9999 -0.0133 0.0001
vn 0.9999 -0.0133 0.0000
vn 0.9999 0.0133 -0.0001
vn 0.9999 0.0161 0.0000
vn -0.0025 -1.0000 0.0000
vn 0.0025 -1.0000 0.0000
vn -0.0026 -1.0000 0.0001
vn -0.0056 1.0000 0.0000
vn -0.5822 0.8131 0.0000
vn -0.6344 -0.7730 0.0000
vn -0.6344 0.7730 0.0000
vn 0.6931 0.7209 -0.0000
vn 0.0063 1.0000 -0.0001
vn 1.0000 0.0068 -0.0000
vn 0.6345 0.7730 0.0000
vn 1.0000 0.0069 0.0000
vn 0.6344 -0.7730 0.0000
vn -0.6649 -0.7470 0.0000
vn -0.0072 -1.0000 0.0000
vn -0.6649 -0.7469 -0.0000
vn -0.7209 -0.6931 -0.0000
vn -0.0070 -1.0000 -0.0000
vn -0.6931 -0.7209 -0.0001
vn -0.9999 0.0133 0.0001
vn -0.7209 0.6930 0.0001
vn -0.0063 1.0000 0.0001
vn -0.6931 0.7209 -0.0001
vn -0.0063 1.0000 0.0000
vn -0.6648 -0.7470 0.0001
vn -0.5821 0.8131 0.0000
vn -0.6345 0.7730 -0.0000
vn -1.0000 0.0068 0.0000
vn -1.0000 -0.0068 0.0001
vn -0.6345 -0.7730 0.0000
vn -1.0000 -0.0068 0.0000
vn 0.0072 -1.0000 0.0000
vn 0.6649 -0.7470 0.0000
vn 0.7209 -0.6931 0.0002
vn 0.7209 -0.6931 0.0000
vn 0.6931 -0.7209 -0.0001
vn 0.0070 -1.0000 0.0000
vn 0.6931 -0.7209 0.0000
vn 0.7209 0.6931 -0.0001
vn 0.7209 0.6931 0.0000
vn 0.6648 -0.7470 -0.0001
vn 0.0026 -1.0000 -0.0001
vn 0.5822 0.8131 0.0000
vn 0.0056 1.0000 0.0000
vn 0.5821 0.8131 -0.0001
vn 0.5821 0.8131 -0.0000
vn 1.0000 -0.0068 -0.0000
vn 0.6344 0.7730 0.0000
vn 0.9999 0.0133 0.0000
vn -0.5821 0.8131 0.0001
vn 0.0063 1.0000 0.0000
vn 0.6345 -0.7730 -0.0000
vn -0.6931 -0.7209 0.0000
vn -0.7209 0.6931 0.0000
vn -0.6931 0.7209 0.0000
vn 0.6649 -0.7469 0.0000
vn 1.0000 -0.0069 0.0000
usemtl Primary
s 1
f 95/1/1 7/2/2 70/3/1
f 9/4/3 81/5/4 30/6/3
f 53/7/5 31/8/6 80/9/5
f 46/10/7 16/11/8 91/12/9
f 94/13/10 72/14/11 43/15/11
f 83/16/12 65/17/13 4/18/14
f 6/19/15 28/20/16 27/21/15
f 32/22/17 12/23/6 11/24/17
f 30/6/3 10/25/18 9/4/3
f 38/26/19 20/27/20 19/28/19
f 50/29/21 24/30/22 23/31/23
f 46/32/7 22/33/24 21/34/7
f 52/35/25 76/36/26 75/37/27
f 80/38/5 54/39/28 53/40/5
f 2/41/29 78/42/30 77/43/29
f 56/44/31 82/45/32 81/5/4
f 26/46/33 58/47/34 57/48/35
f 4/18/14 84/49/36 83/16/12
f 8/50/37 86/51/2 85/52/37
f 90/53/38 60/54/39 59/55/18
f 88/56/40 14/57/41 13/58/42
f 62/59/43 34/60/44 33/61/43
f 92/62/45 16/63/8 15/64/46
f 64/65/47 36/66/48 35/67/49
f 18/68/50 94/13/10 93/69/51
f 66/70/52 40/71/53 39/72/44
f 68/73/54 42/74/55 41/75/56
f 70/76/1 96/77/57 95/78/1
f 48/79/24 74/80/58 73/81/24
f 44/82/59 72/83/11 71/84/59
f 95/1/1 86/85/2 7/2/2
f 9/4/3 56/44/31 81/5/4
f 53/7/5 12/86/6 31/8/6
f 46/10/7 21/87/7 16/11/8
f 94/13/10 17/88/60 72/14/11
f 83/16/12 40/89/53 65/17/13
f 6/19/15 5/90/61 28/20/16
f 32/22/17 31/91/6 12/23/6
f 30/6/3 29/92/18 10/25/18
f 38/26/19 37/93/62 20/27/20
f 50/29/21 49/94/59 24/30/22
f 46/32/7 45/95/63 22/33/24
f 52/35/25 51/96/26 76/36/26
f 80/38/5 79/97/28 54/39/28
f 2/41/29 1/98/64 78/42/30
f 56/44/31 55/99/65 82/45/32
f 26/46/33 25/100/66 58/47/34
f 4/18/14 3/101/25 84/49/36
f 8/50/37 7/102/2 86/51/2
f 90/53/38 89/103/39 60/54/39
f 88/56/40 87/104/17 14/57/41
f 62/59/43 61/105/67 34/60/44
f 92/62/45 91/106/9 16/63/8
f 64/65/47 63/107/48 36/66/48
f 18/68/50 17/88/60 94/13/10
f 66/70/52 65/108/13 40/71/53
f 68/73/54 67/109/55 42/74/55
f 70/76/1 69/110/57 96/77/57
f 48/79/24 47/111/68 74/80/58
f 44/82/59 43/112/11 72/83/11
usemtl Secondary
f 27/113/15 57/48/35 6/114/15
f 37/93/62 67/109/55 20/27/20
f 27/113/15 26/46/33 57/48/35
f 37/93/62 42/74/55 67/109/55
usemtl TrimSheet01
f 55/115/65 25/116/66 82/117/32
f 11/24/17 87/104/17 32/22/17
f 54/39/28 78/118/30 1/119/64
f 75/120/27 3/121/25 52/122/25
f 48/79/24 22/33/24 45/95/63
f 41/123/56 69/110/57 68/124/54
f 85/52/37 5/90/61 8/50/37
f 39/72/44 61/105/67 66/70/52
f 38/125/19 18/126/50 93/127/51
f 29/128/18 59/55/18 10/129/18
f 64/130/47 92/62/45 15/64/46
f 49/94/59 71/84/59 24/30/22
f 55/115/65 58/131/34 25/116/66
f 11/24/17 14/57/41 87/104/17
f 54/39/28 79/97/28 78/118/30
f 75/120/27 84/132/36 3/121/25
f 48/79/24 73/81/24 22/33/24
f 41/123/56 96/77/57 69/110/57
f 85/52/37 28/20/16 5/90/61
f 39/72/44 34/60/44 61/105/67
f 38/125/19 19/133/19 18/126/50
f 29/128/18 90/53/38 59/55/18
f 64/130/47 35/134/49 92/62/45
f 49/94/59 44/82/59 71/84/59
usemtl Floor
f 33/135/43 63/107/48 62/136/43
f 77/43/29 51/96/26 2/41/29
f 33/135/43 36/66/48 63/107/48
f 77/43/29 76/36/26 51/96/26
usemtl Wall
f 13/137/42 89/138/39 88/139/40
f 50/140/21 74/141/58 47/142/68
f 13/137/42 60/143/39 89/138/39
f 50/140/21 23/144/23 74/141/58
