# Blender v3.0.1 OBJ File: 'ShellParts.blend'
# www.blender.org
mtllib ShellTriangle.mtl
o ShellTriangle_Cube.004
v 0.071473 0.528940 0.629647
v 0.071956 0.538301 0.634647
v 0.064027 0.533301 0.629647
v 0.094329 0.567963 0.629647
v 0.086883 0.572324 0.629647
v 0.088955 0.567324 0.634647
v -0.071473 0.528940 0.629647
v -0.064027 0.533301 0.629647
v -0.071956 0.538301 0.634647
v -0.094329 0.567963 0.629647
v -0.088955 0.567324 0.634647
v -0.086883 0.572324 0.629647
v 0.071473 0.528940 -0.629647
v 0.064027 0.533301 -0.629647
v 0.071956 0.538301 -0.634647
v 0.094329 0.567963 -0.629647
v 0.088955 0.567324 -0.634647
v 0.086883 0.572324 -0.629647
v -0.071473 0.528940 -0.629647
v -0.071956 0.538301 -0.634647
v -0.064027 0.533301 -0.629647
v -0.094329 0.567963 -0.629647
v -0.086883 0.572324 -0.629647
v -0.088955 0.567324 -0.634647
v -0.470339 -0.172079 -0.634647
v -0.462131 -0.167664 -0.629647
v -0.462049 -0.176340 -0.629647
v -0.507027 -0.176761 -0.629647
v -0.507108 -0.168086 -0.629647
v -0.503791 -0.172393 -0.634647
v -0.359021 -0.352242 -0.629647
v -0.351494 -0.356556 -0.629647
v -0.359360 -0.361556 -0.634647
v -0.375996 -0.390580 -0.634647
v -0.373862 -0.395580 -0.629647
v -0.381389 -0.391265 -0.629647
v -0.351494 -0.356556 0.629647
v -0.359021 -0.352242 0.629647
v -0.359360 -0.361556 0.634647
v -0.373862 -0.395580 0.629647
v -0.375996 -0.390580 0.634647
v -0.381389 -0.391265 0.629647
v -0.462049 -0.176340 0.629647
v -0.462131 -0.167664 0.629647
v -0.470339 -0.172079 0.634647
v -0.503791 -0.172393 0.634647
v -0.507108 -0.168086 0.629647
v -0.507027 -0.176761 0.629647
v 0.470339 -0.172079 0.634647
v 0.462131 -0.167664 0.629647
v 0.462049 -0.176340 0.629647
v 0.507027 -0.176761 0.629647
v 0.507108 -0.168086 0.629647
v 0.503791 -0.172393 0.634647
v 0.359021 -0.352242 0.629647
v 0.351494 -0.356556 0.629647
v 0.359360 -0.361556 0.634647
v 0.375996 -0.390580 0.634647
v 0.373862 -0.395580 0.629647
v 0.381389 -0.391265 0.629647
v 0.351494 -0.356556 -0.629647
v 0.359021 -0.352242 -0.629647
v 0.359360 -0.361556 -0.634647
v 0.373862 -0.395580 -0.629647
v 0.375996 -0.390580 -0.634647
v 0.381389 -0.391265 -0.629647
v 0.462049 -0.176340 -0.629647
v 0.462131 -0.167664 -0.629647
v 0.470339 -0.172079 -0.634647
v 0.503791 -0.172393 -0.634647
v 0.507108 -0.168086 -0.629647
v 0.507027 -0.176761 -0.629647
vt 2.196349 2.026242
vt -1.196349 0.043296
vt 2.196349 0.043296
vt 2.209820 0.031547
vt 2.209820 2.037991
vt 2.209820 2.037991
vt 1.520666 -1.209820
vt -0.520666 -1.209820
vt -0.520666 -1.209820
vt -1.196349 2.026242
vt 2.196349 0.043296
vt -1.196349 0.043296
vt -0.507195 2.196349
vt 1.507195 -1.196349
vt -0.507195 -1.196349
vt 2.209820 2.037991
vt 2.209820 0.031547
vt 2.209820 2.037991
vt 2.196349 0.043953
vt -1.196349 2.025585
vt -1.196349 0.043953
vt -1.209820 0.031547
vt -1.209820 2.037991
vt -1.209820 0.031547
vt 1.520666 2.209820
vt -0.520666 2.209820
vt -0.520666 2.209820
vt -1.209820 0.031547
vt -1.209820 2.037991
vt -1.209820 2.037991
vt 1.506350 -1.196349
vt -0.506350 2.196349
vt -0.506350 -1.196349
vt -1.196349 2.025585
vt -1.196349 2.037991
vt 0.754097 -1.196349
vt 0.734040 -1.209820
vt 0.739620 -1.209820
vt 0.243722 -1.196349
vt 0.270420 -1.209820
vt 0.252491 -1.209820
vt -1.209820 2.031109
vt -1.196349 2.037991
vt 0.756278 2.196349
vt 0.729580 2.209820
vt 0.747509 2.209820
vt 2.209820 2.031109
vt 2.196349 2.037991
vt 2.196349 2.025585
vt 2.196349 2.037991
vt 0.245903 2.196349
vt 0.265960 2.209820
vt 0.260380 2.209820
vt 2.209820 0.031547
vt 2.196349 0.017493
vt 2.196349 0.019925
vt 2.209819 -0.555484
vt 2.209820 -0.569538
vt 2.209820 -0.569538
vt -0.512945 2.209820
vt -0.507195 2.209820
vt -0.520666 2.196349
vt -1.196349 -0.576640
vt -1.209820 -0.555484
vt -1.209820 -0.569538
vt -0.512945 -1.209820
vt -0.520666 -1.196349
vt -1.196349 0.017493
vt -1.209820 0.031547
vt -1.196349 0.019925
vt -1.196349 0.043953
vt -1.196349 0.017493
vt -1.196349 0.019925
vt -1.209820 -0.555484
vt -1.209820 -0.569538
vt -1.209820 -0.569538
vt 1.512945 -1.209820
vt 1.507196 -1.209819
vt 1.520666 -1.196349
vt 2.196349 -0.576640
vt 2.209820 -0.555484
vt 2.209820 -0.569538
vt 1.507195 2.196349
vt 1.512945 2.209820
vt 1.520666 2.196349
vt 2.196349 0.017493
vt 2.196349 0.043953
vt 2.209820 0.031547
vt 2.196349 0.019925
vt 0.252491 2.196349
vt 0.270420 -1.196349
vt 0.252491 -1.196349
vt 0.265960 2.196349
vt 0.252491 -1.196349
vt 0.265960 -1.196349
vt 0.747509 -1.196349
vt 0.729580 2.196349
vt 0.747509 2.196349
vt 0.734040 -1.196349
vt 0.747509 2.196349
vt 0.734040 2.196349
vt 0.747509 -1.209820
vt 0.729580 -1.196349
vt 0.747509 -1.209820
vt 0.270420 2.196349
vt 0.252491 2.209820
vt 0.747509 2.209820
vt 2.196349 -0.557915
vt -1.196349 -0.555484
vt 2.196349 -0.569538
vt 2.196349 -0.555484
vt -1.196349 -0.569538
vt 2.196349 -0.569538
vt -1.196349 -0.557915
vt -1.209820 -0.569538
vt -1.196349 -0.557915
vt 2.196349 -0.555484
vt -1.196349 -0.569538
vt -1.196349 -0.555484
vt 2.196349 -0.569538
vt -1.196349 -0.569538
vt 2.196349 -0.557915
vt 2.209820 -0.569538
vt 1.520666 -1.209820
vt -1.209820 2.037991
vt 2.196349 2.026242
vt 1.506350 2.196349
vt 1.520666 2.209820
vt 2.196349 2.025585
vt -1.196349 2.026242
vt 0.252491 2.196349
vt 0.747509 -1.196349
vt 0.252491 -1.209820
vt 0.252491 2.209820
vt 2.209820 -0.569538
vt -1.196349 -0.569538
vt -1.209820 -0.569538
vt 2.196349 -0.569538
vn 0.8697 0.4936 -0.0039
vn 0.8747 0.4847 0.0040
vn 0.8747 0.4847 -0.0040
vn 0.1301 0.0390 -0.9907
vn -0.1043 -0.0789 -0.9914
vn 0.1081 0.0866 -0.9904
vn 0.0326 -0.1313 0.9908
vn 0.0279 0.1241 0.9919
vn -0.0326 -0.1313 0.9908
vn -0.8697 0.4936 0.0039
vn -0.8747 0.4847 -0.0040
vn -0.8747 0.4847 0.0040
vn -0.0057 -1.0000 -0.0040
vn 0.0057 -1.0000 0.0040
vn -0.0057 -1.0000 0.0040
vn 0.1043 -0.0789 -0.9914
vn -0.1302 0.0390 -0.9907
vn -0.1080 0.0866 -0.9904
vn 0.8748 -0.4845 -0.0040
vn 0.8695 -0.4938 0.0040
vn 0.8748 -0.4845 0.0040
vn 0.1302 0.0390 0.9907
vn -0.1043 -0.0789 0.9914
vn -0.1223 -0.0395 0.9917
vn -0.0279 0.1241 -0.9919
vn -0.0326 -0.1313 -0.9908
vn 0.0279 0.1241 -0.9919
vn -0.1301 0.0390 0.9907
vn 0.1043 -0.0789 0.9914
vn -0.1080 0.0866 0.9904
vn -0.0060 1.0000 0.0040
vn 0.0060 1.0000 -0.0040
vn 0.0060 1.0000 0.0040
vn -0.8696 -0.4938 0.0040
vn -0.0321 -0.9995 0.0042
vn 0.8697 0.4936 0.0039
vn 0.0240 0.9997 0.0039
vn 0.1080 0.0866 0.9904
vn 0.0321 -0.9995 0.0042
vn -0.0240 0.9997 0.0039
vn -0.8695 -0.4939 -0.0040
vn -0.0321 -0.9995 -0.0042
vn 0.0241 0.9997 -0.0039
vn 0.8696 -0.4938 -0.0040
vn 0.0322 -0.9995 -0.0042
vn -0.8697 0.4936 -0.0039
vn -0.0240 0.9997 -0.0039
vn 0.1223 -0.0395 -0.9917
vn 0.8730 0.4877 -0.0041
vn -0.8712 -0.4908 -0.0039
vn 0.8524 0.5229 -0.0041
vn -0.8542 -0.5199 -0.0039
vn 0.8524 0.5229 0.0041
vn -0.8543 -0.5198 0.0039
vn 0.8730 0.4877 0.0041
vn 0.1223 -0.0395 0.9917
vn -0.8713 -0.4908 0.0039
vn -0.8748 -0.4845 0.0040
vn -0.8730 0.4877 0.0041
vn 0.8712 -0.4908 0.0039
vn -0.8524 0.5229 0.0041
vn -0.0279 0.1241 0.9919
vn 0.8542 -0.5199 0.0039
vn -0.0061 1.0000 -0.0040
vn -0.8524 0.5229 -0.0041
vn 0.0057 -1.0000 -0.0040
vn 0.0326 -0.1313 -0.9908
vn 0.8543 -0.5198 -0.0039
vn -0.8730 0.4877 -0.0041
vn -0.8748 -0.4844 -0.0040
vn -0.1223 -0.0395 -0.9917
vn 0.8713 -0.4908 -0.0039
usemtl Primary
s 1
f 16/1/1 53/2/2 71/3/3
f 70/4/4 15/5/5 17/6/6
f 58/7/7 39/8/8 41/9/9
f 10/10/10 29/11/11 47/12/12
f 35/13/13 59/14/14 40/15/15
f 20/16/16 30/17/17 24/18/18
f 26/19/19 7/20/20 44/21/21
f 54/22/22 2/23/23 49/24/24
f 63/25/25 34/26/26 33/27/27
f 46/28/28 9/29/29 11/30/30
f 56/31/31 32/32/32 37/33/33
f 1/34/34 2/23/23 3/35/35
f 4/36/36 5/37/37 6/38/38
f 7/39/20 8/40/39 9/41/29
f 10/10/10 11/42/30 12/43/40
f 13/44/41 14/45/42 15/46/5
f 16/1/1 17/47/6 18/48/43
f 19/49/44 20/16/16 21/50/45
f 22/51/46 23/52/47 24/53/18
f 25/54/48 26/19/19 27/55/49
f 28/56/50 29/11/11 30/17/17
f 31/57/51 32/58/32 33/59/27
f 34/60/26 35/61/13 36/62/52
f 37/63/33 38/64/53 39/65/8
f 40/15/15 41/66/9 42/67/54
f 43/68/55 44/21/21 45/69/56
f 46/28/28 47/12/12 48/70/57
f 49/24/24 50/71/58 51/72/59
f 52/73/60 53/2/2 54/22/22
f 55/74/61 56/75/31 57/76/62
f 58/77/7 59/78/14 60/79/63
f 61/80/64 62/81/65 63/82/25
f 64/83/66 65/84/67 66/85/68
f 67/86/69 68/87/70 69/88/71
f 70/4/4 71/3/3 72/89/72
f 19/90/44 8/91/39 7/92/20
f 23/93/47 10/94/10 12/95/40
f 1/96/34 14/97/42 13/98/41
f 5/99/37 16/100/1 18/101/43
f 12/95/40 6/102/38 5/99/37
f 9/41/29 3/103/35 2/104/23
f 21/105/45 15/46/5 14/97/42
f 24/106/18 18/101/43 17/107/6
f 27/55/49 33/59/27 25/54/48
f 30/17/17 36/108/52 28/56/50
f 38/109/53 32/110/32 31/111/51
f 40/112/15 36/108/52 35/113/13
f 43/68/55 39/65/8 38/109/53
f 46/28/28 42/114/54 41/115/9
f 27/55/49 44/21/21 43/68/55
f 29/11/11 48/70/57 47/12/12
f 51/72/59 57/76/62 49/24/24
f 54/22/22 60/116/63 52/73/60
f 62/117/65 56/118/31 55/119/61
f 64/120/66 60/116/63 59/121/14
f 67/86/69 63/82/25 62/117/65
f 70/4/4 66/122/68 65/123/67
f 51/72/59 68/87/70 67/86/69
f 53/2/2 72/89/72 71/3/3
f 59/14/14 41/9/9 40/15/15
f 57/124/62 37/33/33 39/8/8
f 53/2/2 6/125/38 54/22/22
f 49/24/24 1/34/34 50/71/58
f 47/12/12 11/30/30 10/10/10
f 45/69/56 7/20/20 9/29/29
f 19/49/44 25/54/48 20/16/16
f 24/18/18 29/11/11 22/126/46
f 61/127/64 33/27/27 32/32/32
f 65/128/67 35/13/13 34/26/26
f 71/3/3 17/6/6 16/1/1
f 69/88/71 13/129/41 15/5/5
f 50/71/58 13/129/41 68/87/70
f 16/1/1 4/130/36 53/2/2
f 70/4/4 69/88/71 15/5/5
f 58/7/7 57/124/62 39/8/8
f 10/10/10 22/126/46 29/11/11
f 35/13/13 64/83/66 59/14/14
f 20/16/16 25/54/48 30/17/17
f 26/19/19 19/49/44 7/20/20
f 54/22/22 6/125/38 2/23/23
f 63/25/25 65/128/67 34/26/26
f 46/28/28 45/69/56 9/29/29
f 56/31/31 61/127/64 32/32/32
f 19/90/44 21/105/45 8/91/39
f 23/93/47 22/131/46 10/94/10
f 1/96/34 3/103/35 14/97/42
f 5/99/37 4/132/36 16/100/1
f 12/95/40 11/133/30 6/102/38
f 9/41/29 8/91/39 3/103/35
f 21/105/45 20/134/16 15/46/5
f 24/106/18 23/93/47 18/101/43
f 27/55/49 31/111/51 33/59/27
f 30/17/17 34/135/26 36/108/52
f 38/109/53 37/136/33 32/110/32
f 40/112/15 42/114/54 36/108/52
f 43/68/55 45/69/56 39/65/8
f 46/28/28 48/70/57 42/114/54
f 27/55/49 26/19/19 44/21/21
f 29/11/11 28/56/50 48/70/57
f 51/72/59 55/119/61 57/76/62
f 54/22/22 58/137/7 60/116/63
f 62/117/65 61/138/64 56/118/31
f 64/120/66 66/122/68 60/116/63
f 67/86/69 69/88/71 63/82/25
f 70/4/4 72/89/72 66/122/68
f 51/72/59 50/71/58 68/87/70
f 53/2/2 52/73/60 72/89/72
f 59/14/14 58/7/7 41/9/9
f 57/124/62 56/31/31 37/33/33
f 53/2/2 4/130/36 6/125/38
f 49/24/24 2/23/23 1/34/34
f 47/12/12 46/28/28 11/30/30
f 45/69/56 44/21/21 7/20/20
f 19/49/44 26/19/19 25/54/48
f 24/18/18 30/17/17 29/11/11
f 61/127/64 63/25/25 33/27/27
f 65/128/67 64/83/66 35/13/13
f 71/3/3 70/4/4 17/6/6
f 69/88/71 68/87/70 13/129/41
f 50/71/58 1/34/34 13/129/41
usemtl Secondary
f 36/108/52 48/70/57 28/56/50
f 60/116/63 72/89/72 52/73/60
f 67/86/69 55/119/61 51/72/59
f 11/133/30 2/104/23 6/102/38
f 43/68/55 31/111/51 27/55/49
f 18/101/43 12/95/40 5/99/37
f 8/91/39 14/97/42 3/103/35
f 39/65/8 46/28/28 41/115/9
f 20/134/16 17/107/6 15/46/5
f 33/59/27 30/17/17 25/54/48
f 63/82/25 70/4/4 65/123/67
f 57/76/62 54/22/22 49/24/24
f 36/108/52 42/114/54 48/70/57
f 60/116/63 66/122/68 72/89/72
f 67/86/69 62/117/65 55/119/61
f 11/133/30 9/41/29 2/104/23
f 43/68/55 38/109/53 31/111/51
f 18/101/43 23/93/47 12/95/40
f 8/91/39 21/105/45 14/97/42
f 39/65/8 45/69/56 46/28/28
f 20/134/16 24/106/18 17/107/6
f 33/59/27 34/135/26 30/17/17
f 63/82/25 69/88/71 70/4/4
f 57/76/62 58/137/7 54/22/22
