# Blender v3.0.1 OBJ File: 'ShellParts.blend'
# www.blender.org
mtllib ShellWing02.mtl
o ShellWing02_Cube
v -0.597321 -0.265855 0.671125
v -0.591870 -0.270359 0.671125
v -0.592343 -0.265382 0.676125
v -0.600067 -0.236969 0.671125
v -0.595090 -0.236496 0.676125
v -0.595563 -0.231519 0.671125
v -0.597321 0.265855 0.671125
v -0.592343 0.265382 0.676125
v -0.591870 0.270359 0.671125
v -0.600067 0.236969 0.671125
v -0.595563 0.231519 0.671125
v -0.595090 0.236496 0.676125
v -0.597321 -0.265849 -1.055609
v -0.593143 -0.265326 -1.057910
v -0.591870 -0.270353 -1.051463
v -0.600067 -0.236969 -1.055609
v -0.595565 -0.231501 -1.051480
v -0.595862 -0.236685 -1.057917
v -0.597321 0.265849 -1.055609
v -0.591870 0.270353 -1.051463
v -0.593143 0.265326 -1.057910
v -0.600067 0.236969 -1.055609
v -0.595862 0.236685 -1.057917
v -0.595565 0.231501 -1.051480
v 0.593287 -0.157656 0.671125
v 0.598265 -0.152182 0.671125
v 0.593265 -0.152635 0.676125
v 0.554298 -0.122149 0.671125
v 0.564248 -0.126247 0.676125
v 0.559276 -0.116676 0.671125
v 0.593287 0.157656 0.671125
v 0.593265 0.152635 0.676125
v 0.598265 0.152182 0.671125
v 0.554298 0.122149 0.671125
v 0.559276 0.116676 0.671125
v 0.564248 0.126247 0.676125
v 0.594296 -0.152418 -0.293285
v 0.598265 -0.152188 -0.285729
v 0.593288 -0.157661 -0.287995
v 0.559864 -0.117551 -0.309524
v 0.564826 -0.112058 -0.307252
v 0.568816 -0.121795 -0.309700
v 0.593288 0.157661 -0.287995
v 0.598265 0.152188 -0.285729
v 0.594296 0.152418 -0.293285
v 0.568816 0.121795 -0.309700
v 0.564826 0.112058 -0.307252
v 0.559864 0.117551 -0.309524
vt -1.485804 -2.079157
vt 2.256512 0.950782
vt -1.485865 3.361317
vt -1.485804 -2.079157
vt 2.256512 0.950782
vt 2.256432 -2.079376
vt -1.488642 3.381821
vt 2.272612 0.958859
vt -1.488521 3.381743
vt -1.501988 3.374627
vt -1.501988 -2.079103
vt -1.501988 3.374627
vt -1.501988 3.374626
vt -1.501988 -2.079103
vt -1.501988 -2.079103
vt -1.486113 -2.094895
vt 2.272611 -2.094895
vt -1.485942 -2.094895
vt 2.256891 0.950226
vt -1.486267 -2.079103
vt 2.256891 -2.079103
vt -1.486113 -2.094895
vt 2.272611 -2.094895
vt 2.272611 -2.094895
vt -1.488642 3.381821
vt 2.272611 0.958859
vt 2.272611 0.958859
vt -1.501988 -2.079103
vt -1.486267 -2.079103
vt -1.485942 -2.094895
vt -1.486267 3.361531
vt -1.488520 3.381743
vt -1.486267 3.361531
vt -1.501988 3.374626
vt -1.485865 3.361317
vt 2.256891 -2.079103
vt 2.272611 -2.079103
vt 2.258314 -2.094895
vt 2.256569 -2.094895
vt 2.272611 -2.094895
vt 2.256891 -2.094895
vt 2.272611 -2.094895
vt 2.272611 -2.079374
vt 2.136029 -0.659154
vt 2.136029 -0.643364
vt 2.136029 -0.659154
vt 2.264754 0.963921
vt 2.272611 0.958859
vt 2.265065 0.963720
vt 2.272611 0.958859
vt 2.272611 0.958859
vt 2.128214 0.353645
vt 2.120654 0.333638
vt 2.127506 0.333638
vt 2.256891 0.950226
vt 2.120237 -0.643364
vt 2.136029 0.333638
vt 2.120237 0.317848
vt 2.136029 -0.659154
vt 2.120581 0.312484
vt 2.136029 0.333638
vt 2.272611 0.943067
vt 2.272611 0.943484
vt 2.256432 -2.079376
vt 2.272611 -2.079374
vt 2.272611 0.943067
vt 2.272612 0.943484
vt -0.902277 -0.638709
vt -0.917725 0.333638
vt -0.902277 0.313193
vt -0.917725 -0.659154
vt -0.901933 0.317848
vt -0.917725 0.333638
vt 2.272611 -2.094895
vt 2.120581 -0.638000
vt 2.272611 -2.079103
vt -0.917725 -0.659154
vt -0.901933 -0.643364
vn -0.1023 0.9947 0.0052
vn -0.0976 0.9952 -0.0023
vn -0.1000 0.9950 -0.0023
vn -0.1023 -0.9947 0.0052
vn -0.0976 -0.9952 -0.0023
vn -0.1000 -0.9950 0.0052
vn 0.5429 0.1145 -0.8319
vn 0.5121 -0.1360 -0.8481
vn 0.5206 -0.1592 -0.8388
vn -0.9712 -0.2384 -0.0022
vn -0.9987 0.0508 0.0027
vn -0.9987 0.0511 -0.0023
vn -0.9712 0.2384 -0.0022
vn -0.9987 -0.0508 0.0027
vn -0.9712 0.2381 0.0027
vn 0.0100 -0.1462 0.9892
vn -0.0358 0.1164 0.9926
vn -0.0174 0.1423 0.9897
vn 0.1000 0.9950 -0.0038
vn 0.0893 0.9960 0.0037
vn 0.0976 0.9952 0.0037
vn 0.0100 0.1462 0.9892
vn -0.0358 -0.1164 0.9926
vn 0.0419 0.1184 0.9921
vn 0.5429 -0.1145 -0.8319
vn 0.5121 0.1360 -0.8481
vn 0.5624 -0.0949 -0.8214
vn -0.9712 -0.2381 0.0026
vn 0.0893 -0.9960 0.0037
vn -0.0174 -0.1423 0.9897
vn 0.0917 -0.9958 -0.0038
vn 0.5206 0.1592 -0.8388
vn 0.0917 0.9958 -0.0038
vn -0.9987 -0.0510 -0.0023
vn -0.1000 -0.9950 -0.0023
vn 0.0976 -0.9952 0.0037
vn 0.9999 -0.0161 0.0052
vn 0.0418 -0.1184 0.9921
vn -0.1000 0.9950 0.0052
vn -0.9998 0.0212 -0.0001
vn 0.9999 0.0161 0.0051
vn -0.9998 -0.0212 -0.0001
vn 0.9999 -0.0160 -0.0041
vn 0.1000 -0.9950 -0.0038
vn -0.9997 0.0212 -0.0098
vn 0.9999 0.0160 -0.0041
vn 0.5624 0.0950 -0.8214
vn -0.9997 -0.0213 -0.0098
usemtl Primary
s 1
f 6/1/1 40/2/2 17/3/3
f 11/4/4 48/5/5 34/6/6
f 21/7/7 46/8/8 23/9/9
f 13/10/10 4/11/11 16/12/12
f 19/13/13 10/14/14 7/15/15
f 3/16/16 29/17/17 5/18/18
f 43/19/19 9/20/20 31/21/21
f 8/22/22 36/23/23 32/24/24
f 14/25/25 42/26/26 37/27/27
f 1/28/28 2/29/29 3/16/16
f 4/11/11 5/18/18 6/1/1
f 7/15/15 8/22/22 9/20/20
f 10/14/14 11/4/4 12/30/30
f 13/10/10 14/25/25 15/31/31
f 16/12/12 17/3/3 18/32/32
f 19/13/13 20/33/33 21/7/7
f 22/34/34 23/9/9 24/35/35
f 25/36/36 26/37/37 27/38/38
f 28/39/39 29/17/17 30/40/40
f 31/41/21 32/24/24 33/42/41
f 34/6/6 35/43/42 36/23/23
f 37/44/27 38/45/43 39/46/44
f 40/47/2 41/48/45 42/26/26
f 43/49/19 44/50/46 45/51/47
f 46/52/8 47/53/48 48/54/5
f 15/31/31 1/28/28 13/10/10
f 4/11/11 17/3/3 16/12/12
f 20/33/33 7/15/15 9/20/20
f 10/14/14 24/35/35 11/4/4
f 15/31/31 37/27/27 39/55/44
f 18/32/32 40/2/2 42/26/26
f 20/33/33 45/51/47 21/7/7
f 23/9/9 48/5/5 24/35/35
f 38/56/43 45/57/47 44/58/46
f 42/59/26 47/60/48 46/61/8
f 25/36/36 38/62/43 26/37/37
f 41/63/45 28/64/39 30/65/40
f 31/21/21 44/66/46 43/19/19
f 47/67/48 34/6/6 48/5/5
f 30/68/40 36/69/23 35/70/42
f 27/71/38 33/72/41 32/73/24
f 25/36/36 3/16/16 2/29/29
f 5/18/18 28/64/39 6/1/1
f 31/21/21 8/22/22 32/24/24
f 12/30/30 34/6/6 36/23/23
f 5/18/18 1/28/28 3/16/16
f 7/15/15 12/30/30 8/22/22
f 16/12/12 14/25/25 13/10/10
f 21/7/7 22/34/34 19/13/13
f 2/29/29 39/55/44 25/36/36
f 6/1/1 28/64/39 40/2/2
f 11/4/4 24/35/35 48/5/5
f 21/7/7 45/51/47 46/8/8
f 13/10/10 1/28/28 4/11/11
f 19/13/13 22/34/34 10/14/14
f 3/16/16 27/74/38 29/17/17
f 43/19/19 20/33/33 9/20/20
f 8/22/22 12/30/30 36/23/23
f 14/25/25 18/32/32 42/26/26
f 15/31/31 2/29/29 1/28/28
f 4/11/11 6/1/1 17/3/3
f 20/33/33 19/13/13 7/15/15
f 10/14/14 22/34/34 24/35/35
f 15/31/31 14/25/25 37/27/27
f 18/32/32 17/3/3 40/2/2
f 20/33/33 43/19/19 45/51/47
f 23/9/9 46/8/8 48/5/5
f 38/56/43 37/44/27 45/57/47
f 42/59/26 41/75/45 47/60/48
f 25/36/36 39/55/44 38/62/43
f 41/63/45 40/2/2 28/64/39
f 31/21/21 33/76/41 44/66/46
f 47/67/48 35/43/42 34/6/6
f 30/68/40 29/77/17 36/69/23
f 27/71/38 26/78/37 33/72/41
f 25/36/36 27/74/38 3/16/16
f 5/18/18 29/17/17 28/64/39
f 31/21/21 9/20/20 8/22/22
f 12/30/30 11/4/4 34/6/6
f 5/18/18 4/11/11 1/28/28
f 7/15/15 10/14/14 12/30/30
f 16/12/12 18/32/32 14/25/25
f 21/7/7 23/9/9 22/34/34
f 2/29/29 15/31/31 39/55/44
usemtl Secondary
f 38/56/43 33/72/41 26/78/37
f 35/70/42 41/75/45 30/68/40
f 29/77/17 32/73/24 36/69/23
f 37/44/27 46/61/8 45/57/47
f 38/56/43 44/58/46 33/72/41
f 35/70/42 47/60/48 41/75/45
f 29/77/17 27/71/38 32/73/24
f 37/44/27 42/59/26 46/61/8
