# Blender v2.93.1 OBJ File: 'BladeSlash.blend'
# www.blender.org
o BladeSlash_Cylinder
v 0.000000 0.000000 -1.672169
v 0.000000 0.069823 -1.000000
v 0.258819 0.069823 -0.965926
v 0.432789 0.000000 -1.615191
v 0.500000 0.069823 -0.866025
v 0.836084 0.000000 -1.448141
v 0.707107 0.069823 -0.707107
v 1.182402 0.000000 -1.182402
v 0.866025 0.069823 -0.500000
v 1.448141 0.000000 -0.836084
v 0.965926 0.069823 -0.258819
v 1.615191 0.000000 -0.432789
v 1.000000 0.069823 0.000000
v 1.672169 0.000000 0.000000
v 0.965926 0.069823 0.258819
v 1.615191 0.000000 0.432789
v 0.866025 0.069823 0.500000
v 1.448141 0.000000 0.836085
v 0.707107 0.069823 0.707107
v 1.182402 0.000000 1.182402
v 0.500000 0.069823 0.866025
v 0.836085 0.000000 1.448141
v 0.258819 0.069823 0.965926
v 0.432789 0.000000 1.615191
v -0.000000 0.069823 1.000000
v -0.000000 0.000000 1.672169
v -0.258819 0.069823 0.965926
v -0.432789 0.000000 1.615191
v -0.500000 0.069823 0.866025
v -0.836084 0.000000 1.448141
v -0.707107 0.069823 0.707107
v -1.182402 0.000000 1.182402
v -0.866025 0.069823 0.500000
v -1.448141 0.000000 0.836084
v -0.965926 0.069823 0.258819
v -1.615191 0.000000 0.432789
v -1.000000 0.069823 -0.000000
v -1.672169 0.000000 -0.000000
v -0.965926 0.069823 -0.258819
v -1.615191 0.000000 -0.432789
v -0.866025 0.069823 -0.500000
v -1.448141 0.000000 -0.836084
v -0.707107 0.069823 -0.707107
v -1.182402 0.000000 -1.182402
v -0.500000 0.069823 -0.866025
v -0.836085 0.000000 -1.448141
v -0.258819 0.069823 -0.965926
v -0.432789 0.000000 -1.615191
vt 0.540853 0.000839
vt 0.540853 0.999161
vt 0.499188 0.999161
vt 0.499188 0.000839
vt 0.582517 0.000839
vt 0.582517 0.999161
vt 0.624182 0.000839
vt 0.624182 0.999161
vt 0.665846 0.000839
vt 0.665846 0.999161
vt 0.707510 0.000839
vt 0.707510 0.999161
vt 0.749175 0.000839
vt 0.749175 0.999161
vt 0.790839 0.000839
vt 0.790839 0.999161
vt 0.832503 0.000839
vt 0.832503 0.999161
vt 0.874168 0.000839
vt 0.874168 0.999161
vt 0.915832 0.000839
vt 0.915832 0.999161
vt 0.957497 0.000839
vt 0.957497 0.999161
vt 0.999161 0.000839
vt 0.999161 0.999161
vt 0.040880 0.000839
vt 0.040880 0.999161
vt -0.000784 0.999161
vt -0.000785 0.000839
vt 0.082544 0.000839
vt 0.082544 0.999161
vt 0.124209 0.000839
vt 0.124209 0.999161
vt 0.165873 0.000839
vt 0.165873 0.999161
vt 0.207537 0.000839
vt 0.207538 0.999161
vt 0.249202 0.000839
vt 0.249202 0.999161
vt 0.290866 0.000839
vt 0.290866 0.999161
vt 0.332531 0.000839
vt 0.332531 0.999161
vt 0.374195 0.000839
vt 0.374195 0.999161
vt 0.415859 0.000839
vt 0.415859 0.999161
vt 0.457524 0.000839
vt 0.457524 0.999161
vn -0.0136 0.9946 -0.1033
vn -0.0399 0.9946 -0.0963
vn -0.0634 0.9946 -0.0827
vn -0.0827 0.9946 -0.0634
vn -0.0963 0.9946 -0.0399
vn -0.1033 0.9946 -0.0136
vn -0.1033 0.9946 0.0136
vn -0.0963 0.9946 0.0399
vn -0.0827 0.9946 0.0634
vn -0.0634 0.9946 0.0827
vn -0.0399 0.9946 0.0963
vn -0.0136 0.9946 0.1033
vn 0.0136 0.9946 0.1033
vn 0.0399 0.9946 0.0963
vn 0.0634 0.9946 0.0827
vn 0.0827 0.9946 0.0634
vn 0.0963 0.9946 0.0399
vn 0.1033 0.9946 0.0136
vn 0.1033 0.9946 -0.0136
vn 0.0963 0.9946 -0.0399
vn 0.0827 0.9946 -0.0634
vn 0.0634 0.9946 -0.0827
vn 0.0399 0.9946 -0.0963
vn 0.0136 0.9946 -0.1033
s off
f 48/1/1 47/2/1 2/3/1 1/4/1
f 46/5/2 45/6/2 47/2/2 48/1/2
f 44/7/3 43/8/3 45/6/3 46/5/3
f 42/9/4 41/10/4 43/8/4 44/7/4
f 40/11/5 39/12/5 41/10/5 42/9/5
f 38/13/6 37/14/6 39/12/6 40/11/6
f 36/15/7 35/16/7 37/14/7 38/13/7
f 34/17/8 33/18/8 35/16/8 36/15/8
f 32/19/9 31/20/9 33/18/9 34/17/9
f 30/21/10 29/22/10 31/20/10 32/19/10
f 28/23/11 27/24/11 29/22/11 30/21/11
f 26/25/12 25/26/12 27/24/12 28/23/12
f 24/27/13 23/28/13 25/29/13 26/30/13
f 22/31/14 21/32/14 23/28/14 24/27/14
f 20/33/15 19/34/15 21/32/15 22/31/15
f 18/35/16 17/36/16 19/34/16 20/33/16
f 16/37/17 15/38/17 17/36/17 18/35/17
f 14/39/18 13/40/18 15/38/18 16/37/18
f 12/41/19 11/42/19 13/40/19 14/39/19
f 10/43/20 9/44/20 11/42/20 12/41/20
f 8/45/21 7/46/21 9/44/21 10/43/21
f 6/47/22 5/48/22 7/46/22 8/45/22
f 4/49/23 3/50/23 5/48/23 6/47/23
f 1/4/24 2/3/24 3/50/24 4/49/24
