# Blender v2.83.2 OBJ File: 'Grass.blend'
# www.blender.org
mtllib Grass.mtl
o Grass_grass_render.002
v -0.113895 0.003593 0.028756
v 0.122923 -0.001260 -0.064299
v -0.134472 0.248741 -0.036397
v 0.102346 0.243888 -0.129451
v 0.020190 0.002384 0.127245
v 0.020190 0.002384 -0.127245
v 0.096713 0.245097 0.127245
v 0.096713 0.245097 -0.127245
v -0.149671 0.248800 -0.020386
v 0.063327 0.248800 0.118889
v -0.123969 -0.001319 -0.059693
v 0.089029 -0.001319 0.079582
vt 1.000000 0.000000
vt 0.000000 1.000000
vt 0.000000 0.000000
vt 0.000000 0.000000
vt 1.000000 1.000000
vt 0.000000 1.000000
vt 0.000000 0.000000
vt 1.000000 1.000000
vt 0.000000 1.000000
vt 1.000000 1.000000
vt 1.000000 0.000000
vt 1.000000 0.000000
vn 0.3571 0.2678 0.8949
vn 0.9537 -0.3007 -0.0000
vn 0.5379 0.1845 -0.8226
usemtl Material
s off
f 2/1/1 3/2/1 1/3/1
f 5/4/2 8/5/2 7/6/2
f 12/7/3 9/8/3 10/9/3
f 2/1/1 4/10/1 3/2/1
f 5/4/2 6/11/2 8/5/2
f 12/7/3 11/12/3 9/8/3
