# Blender 3.1.0
# www.blender.org
mtllib PlantLowPoly.mtl
o Plane
v -1.634455 1.622597 0.830959
v 0.097596 1.621613 1.830959
v -0.853652 -0.001031 -0.521432
v 0.878399 -0.001031 0.478568
v -2.260866 2.616359 2.680657
v -1.201701 2.616359 3.292166
v -3.052093 2.075699 4.705327
v -2.635847 2.075699 4.945646
v -1.428222 1.622597 -1.149834
v -1.629838 1.621613 0.839978
v 0.125430 -0.001031 -0.992411
v -0.076187 -0.001031 0.997401
v -3.372102 2.616358 -0.962478
v -3.495392 2.616359 0.254310
v -5.543160 2.075698 -0.853671
v -5.591612 2.075699 -0.375481
v 0.281675 1.622596 -1.811794
v -1.542361 1.621613 -0.991492
v 0.922168 -0.001031 -0.387580
v -0.901868 -0.001031 0.432721
v -0.852521 2.616359 -3.401565
v -1.967936 2.616359 -2.899943
v -2.032278 2.075699 -5.227353
v -2.470629 2.075699 -5.030218
v 1.818291 1.622596 -0.236121
v 0.520719 1.621612 -1.758064
v 0.629954 -0.001031 0.777027
v -0.667618 -0.001031 -0.744915
v 3.027550 2.616358 -1.769571
v 2.234072 2.616359 -2.700253
v 4.450672 2.075699 -3.412754
v 4.138841 2.075699 -3.778507
v 1.453730 1.622597 1.117409
v 1.610527 1.621613 -0.876435
v -0.103070 -0.001031 0.994982
v 0.053727 -0.001031 -0.998862
v 3.392903 2.616359 0.886365
v 3.488785 2.616358 -0.332889
v 5.560963 2.075699 0.728739
v 5.598645 2.075699 0.249580
v -0.240839 1.622596 1.817672
v 1.564278 1.621613 0.956540
v -0.913214 -0.001031 0.408230
v 0.891903 -0.001031 -0.452902
v 0.928837 2.616359 3.381522
v 2.032684 2.616359 2.854932
v 2.149374 2.075699 5.180305
v 2.583179 2.075699 4.973357
vn 0.3605 0.6933 -0.6240
vn 0.2306 0.8875 -0.3989
vn -0.1220 0.9698 0.2113
vn 0.7169 0.6933 0.0728
vn 0.4584 0.8875 0.0467
vn -0.2427 0.9698 -0.0246
vn 0.2954 0.6933 0.6573
vn 0.1887 0.8875 0.4203
vn -0.1001 0.9698 -0.2225
vn -0.5485 0.6933 0.4674
vn -0.3508 0.8875 0.2987
vn 0.1857 0.9698 -0.1583
vn -0.7184 0.6933 -0.0567
vn -0.4593 0.8875 -0.0364
vn 0.2432 0.9698 0.0191
vn -0.3101 0.6933 -0.6505
vn -0.1981 0.8875 -0.4160
vn 0.1050 0.9698 0.2202
vt 0.992850 0.324080
vt 0.006747 0.324080
vt 0.992850 0.000057
vt 0.006747 0.000057
vt 0.992850 0.640926
vt 0.006747 0.640926
vt 0.992850 0.999943
vt 0.006747 0.999943
vt 0.992850 0.324080
vt 0.006747 0.324080
vt 0.992850 0.000057
vt 0.006747 0.000057
vt 0.992850 0.640926
vt 0.006747 0.640926
vt 0.992850 0.999943
vt 0.006747 0.999943
vt 0.992850 0.324080
vt 0.006747 0.324080
vt 0.992850 0.000057
vt 0.006747 0.000057
vt 0.992850 0.640926
vt 0.006747 0.640926
vt 0.992850 0.999943
vt 0.006747 0.999943
vt 0.992850 0.324080
vt 0.006747 0.324080
vt 0.992850 0.000057
vt 0.006747 0.000057
vt 0.992850 0.640926
vt 0.006747 0.640926
vt 0.992850 0.999943
vt 0.006747 0.999943
vt 0.992850 0.324080
vt 0.006747 0.324080
vt 0.992850 0.000057
vt 0.006747 0.000057
vt 0.992850 0.640926
vt 0.006747 0.640926
vt 0.992850 0.999943
vt 0.006747 0.999943
vt 0.992850 0.324080
vt 0.006747 0.324080
vt 0.992850 0.000057
vt 0.006747 0.000057
vt 0.992850 0.640926
vt 0.006747 0.640926
vt 0.992850 0.999943
vt 0.006747 0.999943
s 0
usemtl Material
f 1/1/1 2/2/1 4/4/1 3/3/1
f 2/2/2 1/1/2 5/5/2 6/6/2
f 6/6/3 5/5/3 7/7/3 8/8/3
f 9/9/4 10/10/4 12/12/4 11/11/4
f 10/10/5 9/9/5 13/13/5 14/14/5
f 14/14/6 13/13/6 15/15/6 16/16/6
f 17/17/7 18/18/7 20/20/7 19/19/7
f 18/18/8 17/17/8 21/21/8 22/22/8
f 22/22/9 21/21/9 23/23/9 24/24/9
f 25/25/10 26/26/10 28/28/10 27/27/10
f 26/26/11 25/25/11 29/29/11 30/30/11
f 30/30/12 29/29/12 31/31/12 32/32/12
f 33/33/13 34/34/13 36/36/13 35/35/13
f 34/34/14 33/33/14 37/37/14 38/38/14
f 38/38/15 37/37/15 39/39/15 40/40/15
f 41/41/16 42/42/16 44/44/16 43/43/16
f 42/42/17 41/41/17 45/45/17 46/46/17
f 46/46/18 45/45/18 47/47/18 48/48/18
