# Blender v2.82 (sub 7) OBJ File: 'Pole.blend'
# www.blender.org
mtllib Pole.mtl
o Pole_Cylinder
v -0.000000 0.000000 -0.068886
v 0.048710 0.000000 -0.048710
v 0.068886 0.000000 -0.000000
v 0.048710 0.000000 0.048710
v -0.000000 0.000000 0.068886
v -0.048710 0.000000 0.048710
v -0.068886 0.000000 -0.000000
v -0.048710 0.000000 -0.048710
v -0.000000 1.090429 -0.068886
v -0.000000 1.097938 -0.060759
v 0.042963 1.097938 -0.042963
v 0.048710 1.090429 -0.048710
v 0.060759 1.097938 0.000000
v 0.068886 1.090429 -0.000000
v 0.042963 1.097938 0.042963
v 0.048710 1.090429 0.048710
v -0.000000 1.097938 0.060759
v -0.000000 1.090429 0.068886
v -0.042963 1.097938 0.042963
v -0.048710 1.090429 0.048710
v -0.060759 1.097938 -0.000000
v -0.068886 1.090429 -0.000000
v -0.042963 1.097938 -0.042963
v -0.048710 1.090429 -0.048710
v 0.000000 0.914426 -0.135908
v 0.000000 0.904822 -0.143713
v 0.000000 0.744219 -0.160621
v 0.000000 0.735068 -0.152690
v 0.107968 0.735068 -0.107968
v 0.113576 0.744219 -0.113576
v 0.101620 0.904822 -0.101620
v 0.096102 0.914426 -0.096102
v 0.152690 0.735068 0.000000
v 0.160621 0.744219 0.000000
v 0.143713 0.904822 0.000000
v 0.135908 0.914426 0.000000
v 0.107968 0.735068 0.107968
v 0.113576 0.744219 0.113576
v 0.101620 0.904822 0.101620
v 0.096102 0.914426 0.096102
v -0.000000 0.735068 0.152690
v -0.000000 0.744219 0.160621
v -0.000000 0.904822 0.143713
v -0.000000 0.914426 0.135908
v -0.107968 0.735068 0.107968
v -0.113576 0.744219 0.113576
v -0.101620 0.904822 0.101620
v -0.096102 0.914426 0.096102
v -0.152690 0.735068 -0.000000
v -0.160621 0.744219 -0.000000
v -0.143713 0.904822 -0.000000
v -0.135908 0.914426 -0.000000
v -0.107968 0.735068 -0.107968
v -0.113576 0.744219 -0.113576
v -0.101620 0.904822 -0.101620
v -0.096102 0.914426 -0.096102
v -0.054229 0.930322 -0.054229
v -0.048710 0.939926 -0.048710
v -0.000000 0.939926 -0.068886
v -0.000000 0.930322 -0.076691
v 0.048710 0.939926 -0.048710
v 0.054229 0.930322 -0.054229
v 0.068886 0.939926 -0.000000
v 0.076691 0.930322 -0.000000
v 0.048710 0.939926 0.048710
v 0.054229 0.930322 0.054229
v -0.000000 0.939926 0.068886
v -0.000000 0.930322 0.076691
v -0.048710 0.939926 0.048710
v -0.054229 0.930322 0.054229
v -0.068886 0.939926 -0.000000
v -0.076691 0.930322 -0.000000
v -0.000000 0.710206 -0.068886
v -0.000000 0.719357 -0.076817
v 0.048710 0.710206 -0.048710
v 0.054318 0.719357 -0.054318
v -0.054318 0.719357 -0.054318
v -0.048710 0.710206 -0.048710
v 0.076817 0.719357 -0.000000
v 0.068886 0.710206 -0.000000
v 0.048710 0.710206 0.048710
v 0.054318 0.719357 0.054318
v -0.000000 0.710206 0.068886
v -0.000000 0.719357 0.076817
v -0.048710 0.710206 0.048710
v -0.054318 0.719357 0.054318
v -0.068886 0.710206 -0.000000
v -0.076817 0.719357 -0.000000
v -0.107829 0.764517 -0.107829
v -0.113576 0.757008 -0.113576
v -0.101620 0.892033 -0.101620
v -0.095873 0.884525 -0.095873
v 0.000000 0.884525 -0.135585
v 0.000000 0.892033 -0.143713
v 0.000000 0.757008 -0.160621
v 0.000000 0.764517 -0.152494
v -0.152494 0.764517 -0.000000
v -0.160621 0.757008 -0.000000
v -0.143713 0.892033 -0.000000
v -0.135585 0.884525 -0.000000
v -0.107829 0.764517 0.107829
v -0.113576 0.757008 0.113576
v -0.101620 0.892033 0.101620
v -0.095873 0.884525 0.095873
v -0.000000 0.764517 0.152494
v -0.000000 0.757008 0.160621
v -0.000000 0.892033 0.143713
v -0.000000 0.884525 0.135585
v 0.107829 0.764517 0.107829
v 0.113576 0.757008 0.113576
v 0.101620 0.892033 0.101620
v 0.095873 0.884525 0.095873
v 0.152494 0.764517 0.000000
v 0.160621 0.757008 0.000000
v 0.143713 0.892033 0.000000
v 0.135585 0.884525 0.000000
v 0.107829 0.764517 -0.107829
v 0.113576 0.757008 -0.113576
v 0.101620 0.892033 -0.101620
v 0.095873 0.884525 -0.095873
v -0.090126 0.772025 -0.090126
v -0.095873 0.764517 -0.095873
v -0.095873 0.884525 -0.095873
v -0.090126 0.877016 -0.090126
v 0.000000 0.877016 -0.127458
v 0.000000 0.884525 -0.135585
v 0.000000 0.764517 -0.135585
v 0.000000 0.772025 -0.127458
v -0.127458 0.772025 -0.000000
v -0.135585 0.764517 -0.000000
v -0.135585 0.884525 -0.000000
v -0.127458 0.877016 -0.000000
v -0.090126 0.772025 0.090126
v -0.095873 0.764517 0.095873
v -0.095873 0.884525 0.095873
v -0.090126 0.877016 0.090126
v -0.000000 0.772025 0.127458
v -0.000000 0.764517 0.135585
v -0.000000 0.884525 0.135585
v -0.000000 0.877016 0.127458
v 0.090126 0.772025 0.090126
v 0.095873 0.764517 0.095873
v 0.095873 0.884525 0.095873
v 0.090126 0.877016 0.090126
v 0.127458 0.772025 0.000000
v 0.135585 0.764517 0.000000
v 0.135585 0.884525 0.000000
v 0.127458 0.877016 0.000000
v 0.090126 0.772025 -0.090126
v 0.095873 0.764517 -0.095873
v 0.095873 0.884525 -0.095873
v 0.090126 0.877016 -0.090126
vt 0.906250 0.511021
vt 0.768750 0.511021
vt 0.768750 0.503987
vt 0.906250 0.503987
vt 0.768750 0.592319
vt 0.631250 0.592319
vt 0.631250 0.585285
vt 0.768750 0.585285
vt 0.493750 0.592319
vt 0.493750 0.585285
vt 0.356250 0.592319
vt 0.356250 0.585285
vt 0.218750 0.592319
vt 0.218750 0.585285
vt 0.081250 0.592319
vt 0.081250 0.585285
vt 1.181250 0.611626
vt 1.181250 0.694403
vt 1.043750 0.694403
vt 1.043750 0.611626
vt 0.445580 0.577119
vt 0.391829 0.630870
vt 0.500000 0.675676
vt 0.500000 0.599660
vt 0.906250 0.592319
vt 0.906250 0.585285
vt -0.056250 0.592319
vt -0.056250 0.585285
vt 0.218750 0.611626
vt 0.218750 0.694403
vt 0.081250 0.694403
vt 0.081250 0.611626
vt 0.356250 0.611626
vt 0.356250 0.694403
vt 0.493750 0.611626
vt 0.493750 0.694403
vt 0.631250 0.611626
vt 0.631250 0.694403
vt 0.768750 0.611626
vt 0.768750 0.694403
vt 0.543044 0.565742
vt 0.500000 0.583572
vt 0.456956 0.565743
vt 0.439127 0.522699
vt 0.456956 0.479655
vt 0.500000 0.461826
vt 0.543044 0.479655
vt 0.560873 0.522699
vt 0.608171 0.630870
vt 0.554420 0.577119
vt 0.423039 0.522699
vt 0.347023 0.522699
vt 0.445580 0.468279
vt 0.391829 0.414528
vt 0.500000 0.445737
vt 0.500000 0.369722
vt 0.554420 0.468279
vt 0.608171 0.414528
vt 0.576961 0.522699
vt 0.652977 0.522699
vt 0.081250 0.511021
vt -0.056250 0.511021
vt -0.056250 0.503987
vt 0.081250 0.503987
vt 0.906250 0.611626
vt 0.906250 0.694403
vt 1.043750 0.592319
vt 1.043750 0.585285
vt 1.043750 0.511021
vt 1.043750 0.503987
vt 0.631250 0.511021
vt 0.631250 0.503987
vt 0.493750 0.511021
vt 0.493750 0.503987
vt 0.356250 0.511021
vt 0.356250 0.503987
vt 0.218750 0.511021
vt 0.218750 0.503987
vt 0.081250 0.094667
vt 0.081250 0.485280
vt -0.056250 0.485280
vt -0.056250 0.094667
vt 0.218750 0.094667
vt 0.218750 0.485280
vt 0.906250 0.094667
vt 0.906250 0.485280
vt 0.768750 0.485280
vt 0.768750 0.094667
vt 0.631250 0.485280
vt 0.631250 0.094667
vt 0.391968 0.630731
vt 0.347220 0.522699
vt 0.364160 0.522699
vt 0.403947 0.618752
vt 0.356250 0.094667
vt 0.356250 0.485280
vt 0.493750 0.094667
vt 0.493750 0.485280
vt 1.043750 0.094667
vt 1.043750 0.485280
vt 0.500000 0.658862
vt 0.500000 0.599534
vt 0.554331 0.577029
vt 0.596282 0.618981
vt 0.652780 0.522699
vt 0.608032 0.630731
vt 0.596053 0.618752
vt 0.635840 0.522699
vt 0.576835 0.522699
vt 0.636163 0.522699
vt 0.403947 0.426645
vt 0.364160 0.522699
vt 0.364160 0.522699
vt 0.403947 0.426645
vt 0.554331 0.468368
vt 0.596282 0.426417
vt 0.596053 0.618752
vt 0.635840 0.522699
vt 0.635840 0.522699
vt 0.596053 0.618752
vt 0.500000 0.445864
vt 0.500000 0.386535
vt 0.391968 0.414667
vt 0.500000 0.369919
vt 0.500000 0.386859
vt 0.403947 0.426645
vt 0.445669 0.468368
vt 0.403718 0.426417
vt 0.423165 0.522699
vt 0.363837 0.522699
vt 0.500000 0.386859
vt 0.500000 0.386859
vt 0.445669 0.577029
vt 0.403718 0.618981
vt 0.608032 0.414667
vt 0.596053 0.426645
vt 0.403947 0.618752
vt 0.500000 0.658539
vt 0.500000 0.658539
vt 0.403947 0.618752
vt 0.596053 0.426645
vt 0.596053 0.426645
vt 0.500000 0.675479
vt 0.500000 0.658539
vt 1.035638 0.698533
vt 0.914361 0.698533
vt 0.898139 0.698533
vt 0.776861 0.698533
vt 0.760639 0.698533
vt 0.639362 0.698533
vt 0.623139 0.698533
vt 0.501861 0.698533
vt 0.485639 0.698533
vt 0.364361 0.698533
vt 0.348139 0.698533
vt 0.226861 0.698533
vt 0.210639 0.698533
vt 0.089361 0.698533
vt 1.173139 0.698533
vt 1.051861 0.698533
vt 0.500000 0.666682
vt 0.398189 0.624510
vt 0.386210 0.636488
vt 0.500000 0.683622
vt 0.356017 0.522699
vt 0.339077 0.522699
vt 0.398189 0.420888
vt 0.386210 0.408909
vt 0.500000 0.378716
vt 0.500000 0.361776
vt 0.601811 0.420888
vt 0.613790 0.408909
vt 0.643983 0.522699
vt 0.660923 0.522699
vt 0.601811 0.624510
vt 0.613790 0.636488
vt 1.043750 0.607496
vt 1.181250 0.607496
vt 0.906250 0.607496
vt 0.768750 0.607496
vt 0.631250 0.607496
vt 0.493750 0.607496
vt 0.356250 0.607496
vt 0.218750 0.607496
vt 0.081250 0.607496
vt 0.569016 0.522699
vt 0.548801 0.571500
vt 0.500000 0.591715
vt 0.451199 0.571500
vt 0.430984 0.522699
vt 0.451199 0.473897
vt 0.500000 0.453683
vt 0.548801 0.473897
vt 0.500000 0.666682
vt 0.601811 0.624510
vt 1.040271 0.515151
vt 0.909729 0.515151
vt 0.643983 0.522699
vt 0.902771 0.515151
vt 0.772229 0.515151
vt 0.601811 0.420888
vt 0.765271 0.515151
vt 0.634729 0.515151
vt 0.500000 0.378716
vt 0.627771 0.515151
vt 0.497229 0.515151
vt 0.398189 0.420888
vt 0.490271 0.515151
vt 0.359729 0.515151
vt 0.356017 0.522699
vt 0.352771 0.515151
vt 0.222229 0.515151
vt 0.398189 0.624510
vt 0.215271 0.515151
vt 0.084729 0.515151
vt 0.077771 0.515151
vt -0.052771 0.515151
vt 0.500000 0.650396
vt 0.590296 0.612995
vt 0.627697 0.522699
vt 0.590296 0.432403
vt 0.500000 0.395001
vt 0.409704 0.432403
vt 0.372303 0.522699
vt 0.409704 0.612995
vt 0.409704 0.601675
vt 0.500000 0.601675
vt 0.500000 0.496487
vt 0.409704 0.496487
vt 0.409704 0.601675
vt 0.500000 0.601675
vt 0.500000 0.496487
vt 0.409704 0.496487
vt 0.590296 0.601675
vt 0.500000 0.601675
vt 0.500000 0.496487
vt 0.590296 0.496487
vt 0.409704 0.601675
vt 0.409704 0.496487
vt 0.590296 0.601675
vt 0.500000 0.601675
vt 0.500000 0.496487
vt 0.590296 0.496487
vt 0.590296 0.601675
vt 0.590296 0.496487
vt 0.500000 0.609198
vt 0.590296 0.609198
vt 0.500000 0.609198
vt 0.409704 0.609198
vt 0.590296 0.609198
vt 0.500000 0.609198
vt 0.409704 0.609198
vt 0.500000 0.609198
vt 0.590296 0.609198
vt 0.409704 0.609198
vn 0.7071 0.0000 -0.7071
vn 1.0000 0.0000 0.0000
vn 0.7071 0.0000 0.7071
vn -0.0000 0.0000 1.0000
vn -0.7071 0.0000 0.7071
vn -1.0000 0.0000 0.0000
vn -0.7071 0.0000 -0.7071
vn 0.0000 0.0000 -1.0000
vn -0.1434 -0.9792 -0.1434
vn -0.0000 -0.9792 -0.2028
vn 0.0000 1.0000 -0.0000
vn 0.1434 -0.9792 -0.1434
vn -0.2028 -0.9792 0.0000
vn -0.1434 -0.9792 0.1434
vn -0.0000 -0.9792 0.2028
vn 0.1434 -0.9792 0.1434
vn 0.2028 -0.9792 -0.0000
vn 0.0000 0.9658 -0.2592
vn 0.1833 0.9658 -0.1833
vn 0.2592 0.9658 0.0000
vn 0.0000 -0.8507 0.5257
vn 0.0000 -0.9940 -0.1091
vn 0.1833 0.9658 0.1833
vn 0.0000 -1.0000 0.0000
vn -0.0000 0.9658 0.2592
vn -0.1833 0.9658 0.1833
vn -0.2592 0.9658 0.0000
vn -0.1833 0.9658 -0.1833
vn 0.0000 -0.9925 0.1222
vn 0.0000 -0.7071 0.7071
vn 0.7054 -0.0682 -0.7055
vn -0.0000 -0.0682 -0.9977
vn 0.9977 -0.0682 -0.0000
vn 0.7055 -0.0682 0.7054
vn 0.0000 -0.0682 0.9977
vn -0.7054 -0.0682 0.7055
vn -0.9977 -0.0682 0.0000
vn -0.7055 -0.0682 -0.7054
vn -0.1779 0.9678 -0.1779
vn 0.0000 0.9678 -0.2516
vn -0.0000 -0.0888 -0.9960
vn -0.7043 -0.0888 -0.7043
vn -0.0000 -0.9801 -0.1983
vn -0.1402 -0.9801 -0.1402
vn -0.7046 0.0838 -0.7047
vn 0.0000 0.0838 -0.9965
vn -0.2516 0.9678 -0.0000
vn -0.9960 -0.0888 0.0000
vn -0.1983 -0.9801 0.0000
vn -0.9965 0.0838 -0.0000
vn -0.1779 0.9678 0.1779
vn -0.7043 -0.0888 0.7043
vn -0.1402 -0.9801 0.1402
vn -0.7047 0.0838 0.7046
vn -0.0000 0.9678 0.2516
vn 0.0000 -0.0888 0.9960
vn 0.0000 -0.9801 0.1983
vn -0.0000 0.0838 0.9965
vn 0.1779 0.9678 0.1779
vn 0.7043 -0.0888 0.7043
vn 0.1402 -0.9801 0.1402
vn 0.7046 0.0838 0.7047
vn 0.2516 0.9678 0.0000
vn 0.9960 -0.0888 -0.0000
vn 0.1983 -0.9801 -0.0000
vn 0.9965 0.0838 0.0000
vn 0.1779 0.9678 -0.1779
vn 0.7043 -0.0888 -0.7043
vn 0.1402 -0.9801 -0.1402
vn 0.7047 0.0838 -0.7046
vn 0.7046 0.0838 -0.7047
vn -0.7047 0.0838 -0.7046
vn -0.7046 0.0838 0.7047
vn 0.7047 0.0838 0.7046
vn 0.0000 0.0682 -0.9977
vn 0.7055 0.0682 -0.7054
vn 0.9977 0.0682 0.0000
vn 0.7054 0.0682 0.7055
vn -0.0000 0.0682 0.9977
vn -0.7055 0.0682 0.7054
vn -0.9977 0.0682 -0.0000
vn -0.7054 0.0682 -0.7055
vn 0.7055 -0.0682 -0.7054
vn 0.7054 -0.0682 0.7055
vn -0.7055 -0.0682 0.7054
vn -0.7054 -0.0682 -0.7055
vn 0.7054 0.0682 -0.7055
vn 0.7055 0.0682 0.7054
vn -0.7054 0.0682 0.7055
vn -0.7055 0.0682 -0.7054
usemtl Primary
s 1
f 118/1/1 114/2/2 34/3/2 30/4/1
f 35/5/2 39/6/3 111/7/3 115/8/2
f 39/6/3 43/9/4 107/10/4 111/7/3
f 43/9/4 47/11/5 103/12/5 107/10/4
f 47/11/5 51/13/6 99/14/6 103/12/5
f 51/13/6 55/15/7 91/16/7 99/14/6
f 58/17/7 24/18/7 9/19/8 59/20/8
f 77/21/9 53/22/9 28/23/10 74/24/10
f 31/25/1 35/5/2 115/8/2 119/26/1
f 55/15/7 26/27/8 94/28/8 91/16/7
f 71/29/6 22/30/6 24/31/7 58/32/7
f 69/33/5 20/34/5 22/30/6 71/29/6
f 67/35/4 18/36/4 20/34/5 69/33/5
f 65/37/3 16/38/3 18/36/4 67/35/4
f 63/39/2 14/40/2 16/38/3 65/37/3
f 11/41/11 10/42/11 23/43/11 21/44/11 19/45/11 17/46/11 15/47/11 13/48/11
f 74/24/10 28/23/10 29/49/12 76/50/12
f 88/51/13 49/52/13 53/22/9 77/21/9
f 86/53/14 45/54/14 49/52/13 88/51/13
f 84/55/15 41/56/15 45/54/14 86/53/14
f 82/57/16 37/58/16 41/56/15 84/55/15
f 79/59/17 33/60/17 37/58/16 82/57/16
f 76/50/12 29/49/12 33/60/17 79/59/17
f 90/61/7 95/62/8 27/63/8 54/64/7
f 61/65/1 12/66/1 14/40/2 63/39/2
f 26/67/8 31/25/1 119/26/1 94/68/8
f 95/69/8 118/1/1 30/4/1 27/70/8
f 114/2/2 110/71/3 38/72/3 34/3/2
f 110/71/3 106/73/4 42/74/4 38/72/3
f 106/73/4 102/75/5 46/76/5 42/74/4
f 102/75/5 98/77/6 50/78/6 46/76/5
f 98/77/6 90/61/7 54/64/7 50/78/6
f 8/79/7 78/80/7 73/81/8 1/82/8
f 7/83/6 87/84/6 78/80/7 8/79/7
f 2/85/1 75/86/1 80/87/2 3/88/2
f 3/88/2 80/87/2 81/89/3 4/90/3
f 89/91/11 97/92/11 130/93/11 122/94/11
f 6/95/5 85/96/5 87/84/6 7/83/6
f 5/97/4 83/98/4 85/96/5 6/95/5
f 4/90/3 81/89/3 83/98/4 5/97/4
f 1/99/8 73/100/8 75/86/1 2/85/1
f 25/101/18 60/102/18 62/103/19 32/104/19
f 113/105/11 117/106/11 150/107/11 146/108/11
f 32/104/19 62/103/19 64/109/20 36/110/20
f 104/111/21 100/112/22 131/113/22 135/114/21
f 36/110/20 64/109/20 66/115/23 40/116/23
f 120/117/24 116/118/24 147/119/24 151/120/24
f 40/116/23 66/115/23 68/121/25 44/122/25
f 101/123/11 105/124/11 138/125/11 134/126/11
f 44/122/25 68/121/25 70/127/26 48/128/26
f 48/128/26 70/127/26 72/129/27 52/130/27
f 108/131/24 104/111/21 135/114/21 139/132/24
f 52/130/27 72/129/27 57/133/28 56/134/28
f 97/92/11 101/123/11 134/126/11 130/93/11
f 56/134/28 57/133/28 60/102/18 25/101/18
f 105/124/11 109/135/11 142/136/11 138/125/11
f 92/137/29 93/138/30 126/139/30 123/140/29
f 116/118/24 112/141/24 143/142/24 147/119/24
f 96/143/11 89/91/11 122/94/11 127/144/11
f 109/135/11 113/105/11 146/108/11 142/136/11
f 93/138/30 120/117/24 151/120/24 126/139/30
f 112/141/24 108/131/24 139/132/24 143/142/24
f 117/106/11 96/143/11 127/144/11 150/107/11
f 100/112/22 92/137/29 123/140/29 131/113/22
f 12/66/31 9/19/32 10/145/11 11/146/11
f 14/40/33 12/66/31 11/147/11 13/148/11
f 16/38/34 14/40/33 13/149/11 15/150/11
f 18/36/35 16/38/34 15/151/11 17/152/11
f 20/34/36 18/36/35 17/153/11 19/154/11
f 22/30/37 20/34/36 19/155/11 21/156/11
f 24/31/38 22/30/37 21/157/11 23/158/11
f 9/19/32 24/18/38 23/159/11 10/160/11
f 56/134/39 25/101/40 26/161/41 55/162/42
f 28/23/43 53/22/44 54/163/45 27/164/46
f 52/130/47 56/134/39 55/162/42 51/165/48
f 53/22/44 49/52/49 50/166/50 54/163/45
f 48/128/51 52/130/47 51/165/48 47/167/52
f 49/52/49 45/54/53 46/168/54 50/166/50
f 44/122/55 48/128/51 47/167/52 43/169/56
f 45/54/53 41/56/57 42/170/58 46/168/54
f 40/116/59 44/122/55 43/169/56 39/171/60
f 41/56/57 37/58/61 38/172/62 42/170/58
f 36/110/63 40/116/59 39/171/60 35/173/64
f 37/58/61 33/60/65 34/174/66 38/172/62
f 32/104/67 36/110/63 35/173/64 31/175/68
f 33/60/65 29/49/69 30/176/70 34/174/66
f 25/101/40 32/104/67 31/175/68 26/161/41
f 29/49/69 28/23/43 27/164/46 30/176/70
f 58/17/42 59/20/41 60/177/40 57/178/39
f 59/20/41 61/65/68 62/179/67 60/177/40
f 61/65/68 63/39/64 64/180/63 62/179/67
f 63/39/64 65/37/60 66/181/59 64/180/63
f 65/37/60 67/35/56 68/182/55 66/181/59
f 67/35/56 69/33/52 70/183/51 68/182/55
f 69/33/52 71/29/48 72/184/47 70/183/51
f 71/29/48 58/32/42 57/185/39 72/184/47
f 76/50/69 79/59/65 80/186/66 75/187/71
f 74/24/43 76/50/69 75/187/71 73/188/46
f 88/51/49 77/21/44 78/189/72 87/190/50
f 86/53/53 88/51/49 87/190/50 85/191/73
f 84/55/57 86/53/53 85/191/73 83/192/58
f 82/57/61 84/55/57 83/192/58 81/193/74
f 79/59/65 82/57/61 81/193/74 80/186/66
f 77/21/44 74/24/43 73/188/46 78/189/72
f 120/117/24 93/138/24 94/194/75 119/195/76
f 118/1/31 95/69/32 96/196/11 117/197/11
f 116/118/24 120/117/24 119/195/76 115/198/77
f 114/2/33 118/1/31 117/199/11 113/200/11
f 112/141/24 116/118/24 115/198/77 111/201/78
f 110/71/34 114/2/33 113/202/11 109/203/11
f 108/131/24 112/141/24 111/201/78 107/204/79
f 106/73/35 110/71/34 109/205/11 105/206/11
f 104/111/24 108/131/24 107/204/79 103/207/80
f 102/75/36 106/73/35 105/208/11 101/209/11
f 100/112/24 104/111/24 103/207/80 99/210/81
f 98/77/37 102/75/36 101/211/11 97/212/11
f 92/137/24 100/112/24 99/210/81 91/213/82
f 90/61/38 98/77/37 97/214/11 89/215/11
f 93/138/24 92/137/24 91/213/82 94/194/75
f 95/62/32 90/61/38 89/216/11 96/217/11
f 150/107/11 127/144/11 128/218/32 149/219/83
f 146/108/11 150/107/11 149/219/83 145/220/33
f 142/136/11 146/108/11 145/220/33 141/221/84
f 138/125/11 142/136/11 141/221/84 137/222/35
f 134/126/11 138/125/11 137/222/35 133/223/85
f 130/93/11 134/126/11 133/223/85 129/224/37
f 122/94/11 130/93/11 129/224/37 121/225/86
f 127/144/11 122/94/11 121/225/86 128/218/32
f 59/20/8 9/19/8 12/66/1 61/65/1
usemtl Emission
f 124/226/7 125/227/8 128/228/8 121/229/7
f 136/230/5 132/231/6 129/232/6 133/233/5
f 152/234/1 148/235/2 145/236/2 149/237/1
f 148/235/2 144/238/3 141/239/3 145/236/2
f 144/240/3 140/241/4 137/242/4 141/243/3
f 140/241/4 136/230/5 133/233/5 137/242/4
f 125/227/8 152/234/1 149/237/1 128/228/8
f 132/231/6 124/244/7 121/245/7 129/232/6
f 152/234/87 125/227/75 126/246/24 151/247/24
f 148/235/77 152/234/87 151/247/24 147/248/24
f 144/238/88 148/235/77 147/248/24 143/249/24
f 140/241/79 144/240/88 143/250/24 139/251/24
f 136/230/89 140/241/79 139/251/24 135/252/24
f 132/231/81 136/230/89 135/252/24 131/253/24
f 124/244/90 132/231/81 131/253/24 123/254/24
f 125/227/75 124/226/90 123/255/24 126/246/24
