# Blender v2.83.5 OBJ File: 'ProjectileStar.blend'
# www.blender.org
mtllib ProjectileStar.mtl
o ProjectileStar_Cylinder
v 0.232211 -0.232211 -1.056753
v 0.232211 -0.232211 -1.875193
v 0.169437 -0.215391 -1.056753
v 0.169438 -0.215391 -1.875193
v 0.215391 -0.169438 -1.056751
v 0.215391 -0.169438 -1.875192
v -0.328395 0.000000 -0.001971
v -0.328395 0.000000 -0.820412
v -0.272115 0.032494 -0.001972
v -0.272115 0.032494 -0.820411
v -0.272115 -0.032494 -0.001971
v -0.272115 -0.032494 -0.820412
v -0.232211 0.232211 -0.503099
v -0.232211 0.232211 -1.321539
v -0.169438 0.215391 -0.503100
v -0.169438 0.215391 -1.321539
v -0.215391 0.169438 -0.503099
v -0.215391 0.169438 -1.321539
v -0.000000 0.328395 0.237154
v -0.000000 0.328395 -0.581286
v 0.032494 0.272115 0.237154
v 0.032494 0.272115 -0.581286
v -0.032494 0.272115 0.237154
v -0.032494 0.272115 -0.581286
v 0.232211 0.232211 -0.503099
v 0.232211 0.232211 -1.321539
v 0.215391 0.169438 -0.503100
v 0.215391 0.169438 -1.321540
v 0.169438 0.215391 -0.503099
v 0.169438 0.215391 -1.321539
v 0.328395 -0.000000 -0.001972
v 0.328395 -0.000000 -0.820412
v 0.272115 -0.032494 -0.001972
v 0.272115 -0.032494 -0.820412
v 0.272115 0.032494 -0.001971
v 0.272115 0.032494 -0.820411
v -0.000000 -0.328395 0.237154
v -0.000000 -0.328395 -0.581286
v -0.032494 -0.272115 0.237153
v -0.032494 -0.272115 -0.581286
v 0.032494 -0.272115 0.237154
v 0.032494 -0.272115 -0.581286
v -0.232211 -0.232210 -1.056752
v -0.232211 -0.232210 -1.875192
v -0.215391 -0.169437 -1.056752
v -0.215391 -0.169437 -1.875192
v -0.169438 -0.215391 -1.056752
v -0.169438 -0.215391 -1.875192
vt 0.700827 0.478305
vt 0.853553 0.521695
vt 0.853553 0.478305
vt 0.812631 0.521695
vt 0.700827 0.521695
vt 0.700827 0.187370
vt 0.812631 0.299173
vt 0.853553 0.146446
vt 0.478305 0.146446
vt 0.521695 0.299173
vt 0.478305 0.299173
vt 0.853553 0.146446
vt 0.812630 0.299173
vt 0.700827 0.187370
vt 0.000000 0.478305
vt 0.136931 0.521695
vt 0.000000 0.521695
vt 0.478305 0.420943
vt 0.521695 0.579057
vt 0.478305 0.579057
vt 0.136931 0.579057
vt 0.136931 0.420943
vt 0.000000 0.500000
vt 0.136931 0.521695
vt 0.136931 0.478305
vt 0.000000 0.500000
vt 0.136931 0.420943
vt 0.136931 0.579057
vt 0.299173 0.478305
vt 0.146447 0.521695
vt 0.146447 0.478305
vt 0.187370 0.521695
vt 0.299173 0.521695
vt 0.299173 0.812630
vt 0.187370 0.700827
vt 0.146447 0.853553
vt 0.478305 0.700827
vt 0.521695 0.853553
vt 0.521695 0.700827
vt 0.146447 0.853553
vt 0.187370 0.700827
vt 0.299173 0.812630
vt 0.478305 0.863069
vt 0.521695 1.000000
vt 0.478305 1.000000
vt 0.579057 0.478305
vt 0.420943 0.521695
vt 0.579057 0.521695
vt 0.579057 0.863069
vt 0.420943 0.863069
vt 0.500000 1.000000
vt 0.521695 0.863069
vt 0.478305 0.863069
vt 0.500000 1.000000
vt 0.420943 0.863069
vt 0.579057 0.863069
vt 0.478305 0.700827
vt 0.521695 0.853553
vt 0.478305 0.853553
vt 0.521695 0.812630
vt 0.521695 0.700827
vt 0.812630 0.700827
vt 0.700827 0.812630
vt 0.853553 0.853553
vt 0.853553 0.478305
vt 0.700827 0.521695
vt 0.700827 0.478305
vt 0.853553 0.853553
vt 0.700827 0.812630
vt 0.812630 0.700827
vt 0.863069 0.478305
vt 1.000000 0.521695
vt 1.000000 0.478305
vt 0.478305 0.420943
vt 0.521695 0.579057
vt 0.521695 0.420943
vt 0.863069 0.420943
vt 0.863069 0.579057
vt 1.000000 0.500000
vt 0.863069 0.521695
vt 0.863069 0.478305
vt 1.000000 0.500000
vt 0.863069 0.579057
vt 0.863069 0.420943
vt 0.478305 0.136931
vt 0.521695 0.000000
vt 0.478305 0.000000
vt 0.420943 0.478305
vt 0.579057 0.521695
vt 0.420943 0.521695
vt 0.420943 0.136931
vt 0.579057 0.136931
vt 0.500000 0.000000
vt 0.521695 0.136931
vt 0.478305 0.136931
vt 0.500000 0.000000
vt 0.579057 0.136931
vt 0.420943 0.136931
vt 0.478305 0.299173
vt 0.521695 0.146447
vt 0.478305 0.146447
vt 0.521695 0.187370
vt 0.521695 0.299173
vt 0.187369 0.299173
vt 0.299173 0.187370
vt 0.146446 0.146447
vt 0.146446 0.478305
vt 0.299173 0.521695
vt 0.299173 0.478305
vt 0.146446 0.146447
vt 0.299173 0.187370
vt 0.187369 0.299173
vt 0.812630 0.478305
vt 0.521695 0.146446
vt 0.136931 0.478305
vt 0.521695 0.420943
vt 0.187370 0.478305
vt 0.478305 0.853553
vt 0.521695 0.863069
vt 0.420943 0.478305
vt 0.478305 0.812630
vt 0.853553 0.521695
vt 0.863069 0.521695
vt 0.478305 0.579057
vt 0.521695 0.136931
vt 0.579057 0.478305
vt 0.478305 0.187370
vt 0.146446 0.521695
vn -0.8037 -0.2153 0.5547
vn 0.5883 -0.5883 -0.5547
vn 0.5883 -0.5883 0.5547
vn 0.2153 0.8037 -0.5547
vn -0.8037 -0.2153 -0.5547
vn 0.2153 0.8037 0.5547
vn -0.8320 0.0000 0.5547
vn 0.4160 0.7206 -0.5547
vn -0.8320 0.0000 -0.5547
vn 0.4160 -0.7206 0.5547
vn 0.4160 0.7206 0.5547
vn 0.4160 -0.7206 -0.5547
vn 0.8037 0.2153 0.5547
vn -0.5883 0.5883 -0.5547
vn -0.5883 0.5883 0.5547
vn -0.2153 -0.8037 -0.5547
vn 0.8037 0.2153 -0.5547
vn -0.2153 -0.8037 0.5547
vn 0.7206 -0.4160 0.5547
vn 0.0000 0.8320 -0.5547
vn 0.0000 0.8320 0.5547
vn -0.7206 -0.4160 -0.5547
vn 0.7206 -0.4160 -0.5547
vn -0.7206 -0.4160 0.5547
vn 0.2153 -0.8037 0.5547
vn 0.5883 0.5883 -0.5547
vn 0.5883 0.5883 0.5547
vn -0.8037 0.2153 -0.5547
vn 0.2153 -0.8037 -0.5547
vn -0.8037 0.2153 0.5547
vn -0.4160 -0.7206 0.5547
vn 0.8320 0.0000 -0.5547
vn 0.8320 0.0000 0.5547
vn -0.4160 0.7206 -0.5547
vn -0.4160 -0.7206 -0.5547
vn -0.4160 0.7205 0.5547
vn -0.7206 0.4160 0.5547
vn 0.0000 -0.8320 -0.5547
vn 0.0000 -0.8320 0.5547
vn 0.7206 0.4160 -0.5547
vn -0.7206 0.4160 -0.5547
vn 0.7206 0.4160 0.5547
vn -0.2153 0.8037 0.5547
vn -0.5883 -0.5883 -0.5547
vn -0.5883 -0.5883 0.5547
vn 0.8037 -0.2153 -0.5547
vn -0.2153 0.8037 -0.5547
vn 0.8037 -0.2153 0.5547
usemtl Emission
s 1
f 3/1/1 2/2/2 1/3/3
f 3/1/1 6/4/4 4/5/5
f 4/6/5 6/7/4 2/8/2
f 1/9/3 6/10/4 5/11/6
f 1/12/3 5/13/6 3/14/1
f 7/15/7 10/16/8 8/17/9
f 11/18/10 10/19/8 9/20/11
f 10/21/8 12/22/12 8/23/9
f 7/15/7 12/24/12 11/25/10
f 7/26/7 11/27/10 9/28/11
f 15/29/13 14/30/14 13/31/15
f 15/29/13 18/32/16 16/33/17
f 16/34/17 18/35/16 14/36/14
f 17/37/18 14/38/14 18/39/16
f 13/40/15 17/41/18 15/42/13
f 21/43/19 20/44/20 19/45/21
f 21/46/19 24/47/22 22/48/23
f 22/49/23 24/50/22 20/51/20
f 19/45/21 24/52/22 23/53/24
f 19/54/21 23/55/24 21/56/19
f 27/57/25 26/58/26 25/59/27
f 27/57/25 30/60/28 28/61/29
f 28/62/29 30/63/28 26/64/26
f 25/65/27 30/66/28 29/67/30
f 25/68/27 29/69/30 27/70/25
f 33/71/31 32/72/32 31/73/33
f 33/74/31 36/75/34 34/76/35
f 34/77/35 36/78/34 32/79/32
f 31/73/33 36/80/34 35/81/36
f 31/82/33 35/83/36 33/84/31
f 39/85/37 38/86/38 37/87/39
f 39/88/37 42/89/40 40/90/41
f 40/91/41 42/92/40 38/93/38
f 37/87/39 42/94/40 41/95/42
f 37/96/39 41/97/42 39/98/37
f 45/99/43 44/100/44 43/101/45
f 45/99/43 48/102/46 46/103/47
f 46/104/47 48/105/46 44/106/44
f 43/107/45 48/108/46 47/109/48
f 43/110/45 47/111/48 45/112/43
f 3/1/1 4/5/5 2/2/2
f 3/1/1 5/113/6 6/4/4
f 1/9/3 2/114/2 6/10/4
f 7/15/7 9/115/11 10/16/8
f 11/18/10 12/116/12 10/19/8
f 7/15/7 8/17/9 12/24/12
f 15/29/13 16/33/17 14/30/14
f 15/29/13 17/117/18 18/32/16
f 17/37/18 13/118/15 14/38/14
f 21/43/19 22/119/23 20/44/20
f 21/46/19 23/120/24 24/47/22
f 19/45/21 20/44/20 24/52/22
f 27/57/25 28/61/29 26/58/26
f 27/57/25 29/121/30 30/60/28
f 25/65/27 26/122/26 30/66/28
f 33/71/31 34/123/35 32/72/32
f 33/74/31 35/124/36 36/75/34
f 31/73/33 32/72/32 36/80/34
f 39/85/37 40/125/41 38/86/38
f 39/88/37 41/126/42 42/89/40
f 37/87/39 38/86/38 42/94/40
f 45/99/43 46/103/47 44/100/44
f 45/99/43 47/127/48 48/102/46
f 43/107/45 44/128/44 48/108/46
